<?xml version="1.0" encoding="UTF-8"?>
<svg id="_圖層_2" data-name="圖層 2" xmlns="http://www.w3.org/2000/svg" viewBox="0 0 214.73 79.4">
  <defs>
    <style>
      .cls-1 {
        fill: #231815;
      }
    </style>
  </defs>
  <g id="_圖層_1-2" data-name="圖層 1">
    <g>
      <path class="cls-1" d="m6.37,47.49v9.45H0v-27.54h10.47c2.8-.16,5.56.71,7.75,2.46,1.9,1.65,2.95,4.06,2.86,6.58.09,2.51-.96,4.92-2.86,6.57-2.19,1.75-4.95,2.64-7.75,2.49h-4.1Zm0-4.89h4.1c1.18.09,2.35-.33,3.2-1.15.74-.79,1.13-1.85,1.09-2.93.04-1.11-.35-2.2-1.09-3.03-.84-.83-2-1.26-3.18-1.17h-4.13v8.29Z"/>
      <path class="cls-1" d="m30.97,52.05h11.77v4.89h-18.14v-27.54h6.37v22.66Z"/>
      <path class="cls-1" d="m60.87,51.62h-8.11l-1.58,5.35h-6.75l8.95-27.58h6.82l8.97,27.58h-6.69l-1.6-5.35Zm-6.68-4.89h5.22l-2.56-8.56h-.12l-2.54,8.56Z"/>
      <path class="cls-1" d="m85.29,49.67c.05-.87-.31-1.71-.98-2.27-1.07-.74-2.25-1.3-3.49-1.68-2.69-.78-5.23-1.97-7.54-3.55-1.67-1.29-2.61-3.32-2.49-5.43-.03-2.24,1.07-4.35,2.93-5.61,2.14-1.5,4.72-2.25,7.33-2.14,2.69-.13,5.35.65,7.55,2.21,1.91,1.48,2.95,3.82,2.77,6.22v.12h-6.26c.09-1.06-.3-2.1-1.07-2.83-.93-.65-2.05-.97-3.19-.88-.98-.06-1.95.25-2.73.85-.63.51-.99,1.29-.98,2.1-.03.78.34,1.51.98,1.95,1.21.74,2.5,1.36,3.84,1.83,2.61.67,5.06,1.85,7.21,3.47,1.64,1.39,2.55,3.46,2.45,5.61.08,2.24-.96,4.37-2.78,5.67-2.22,1.46-4.85,2.18-7.5,2.05-2.79.09-5.54-.68-7.88-2.21-2.15-1.47-3.19-3.78-3.14-6.95v-.11h6.2c-.13,1.26.3,2.51,1.17,3.42,1.05.74,2.33,1.09,3.61.98,1.06.08,2.11-.2,2.98-.8.64-.48,1.01-1.23,1.02-2.02Z"/>
      <path class="cls-1" d="m114.21,34.32h-7.25v22.66h-6.32v-22.66h-7.17v-4.89h20.74v4.89Z"/>
      <path class="cls-1" d="m123.16,52.05h11.72v4.89h-18.1v-27.54h6.37v22.66Z"/>
      <path class="cls-1" d="m145.09,56.97h-6.35v-27.58h6.35v27.58Z"/>
      <path class="cls-1" d="m164.01,49.67c.05-.87-.31-1.71-.98-2.27-1.06-.74-2.24-1.31-3.48-1.68-2.7-.77-5.27-1.97-7.59-3.55-1.67-1.29-2.59-3.33-2.47-5.43-.03-2.24,1.07-4.35,2.93-5.61,4.55-2.88,10.36-2.85,14.88.07,1.89,1.49,2.9,3.83,2.71,6.22v.12h-6.18c.1-1.06-.29-2.1-1.06-2.83-.93-.65-2.05-.97-3.19-.88-.98-.06-1.95.25-2.73.85-.63.51-.99,1.29-.98,2.1-.02.78.37,1.52,1.03,1.95,1.21.74,2.49,1.36,3.83,1.83,2.61.67,5.07,1.85,7.22,3.47,1.64,1.39,2.54,3.46,2.44,5.61.07,2.25-1,4.38-2.85,5.67-2.22,1.46-4.84,2.18-7.49,2.05-2.79.09-5.55-.68-7.88-2.21-2.16-1.47-3.2-3.78-3.14-6.95v-.11h6.2c-.13,1.26.3,2.51,1.17,3.42,1.05.74,2.33,1.09,3.62.98,1.04.07,2.07-.21,2.93-.8.65-.47,1.04-1.22,1.06-2.02Z"/>
      <path class="cls-1" d="m192.92,34.32h-7.28v22.66h-6.37v-22.66h-7.12v-4.89h20.74l.03,4.89Z"/>
      <path class="cls-1" d="m146.63,22.08l-.8,1.38-5.04-2.93.8-1.39,5.04,2.94Z"/>
      <path class="cls-1" d="m150.59,16.58l-.98,1.26-4.44-.28h0l2.88,2.28-.98,1.26-4.59-3.62.98-1.26,4.44.28h0l-2.88-2.24.98-1.26,4.59,3.58Z"/>
      <path class="cls-1" d="m151.18,16l-3.85-4.41,1.89-1.66c.53-.5,1.22-.8,1.95-.84.67-.03,1.31.25,1.74.76l.69.79c.45.5.65,1.18.53,1.84-.13.73-.51,1.38-1.08,1.85l-1.87,1.67Zm-1.95-4.67l2.47,2.82.69-.61c.26-.22.42-.54.42-.88,0-.36-.13-.71-.38-.98l-.69-.8c-.22-.27-.55-.45-.9-.49-.34-.04-.67.07-.92.3l-.69.63Z"/>
      <path class="cls-1" d="m157.66,4.1l1.95,3.26c.33.53.38,1.19.12,1.76-.31.65-.81,1.19-1.45,1.53-.61.4-1.33.6-2.05.57-.63-.05-1.18-.42-1.48-.98l-1.95-3.27,1.38-.82,1.95,3.27c.13.28.39.48.69.54.33.04.66-.04.93-.22.29-.15.52-.4.64-.7.09-.3.04-.62-.14-.87l-1.95-3.27,1.36-.79Z"/>
      <path class="cls-1" d="m164.14,6.14c-.06-.18-.2-.32-.39-.36-.32-.05-.65-.05-.98,0-.68.1-1.37.1-2.04,0-.46-.09-.83-.42-.98-.87-.17-.47-.06-1,.27-1.37.41-.49.95-.86,1.56-1.06.62-.26,1.3-.33,1.95-.21.52.1.94.47,1.1.98h0l-1.46.53c-.06-.22-.23-.4-.45-.47-.27-.05-.56-.01-.81.1-.23.07-.44.21-.58.41-.11.14-.15.33-.09.51.06.16.21.27.38.29.34.03.69.03,1.04,0,.65-.09,1.31-.07,1.95.07.46.12.83.46.98.91.18.47.08,1-.25,1.38-.43.49-.98.86-1.6,1.06-.64.26-1.33.34-2.01.24-.6-.09-1.08-.53-1.24-1.11h0l1.46-.54c.07.27.26.48.52.58.33.07.67.03.98-.11.25-.07.47-.22.64-.42.12-.15.14-.36.05-.53Z"/>
      <path class="cls-1" d="m170.6,1.28l-1.79.34.9,4.73-1.56.3-.9-4.73-1.75.33-.2-.98,5.1-.98.2.98Z"/>
      <path class="cls-1" d="m173.47,3.69l.06,2.25h-1.59l-.15-5.86,2.38-.06c.68-.06,1.36.09,1.95.42.45.27.72.75.72,1.27.01.29-.08.57-.25.79-.22.25-.51.44-.82.56.35.05.68.22.92.49.2.25.31.56.3.88v.37c0,.18.03.35.09.52.04.17.15.32.29.41v.08h-1.64c-.14-.1-.24-.26-.25-.43-.04-.19-.07-.39-.08-.59v-.28c.01-.24-.09-.47-.27-.63-.22-.16-.49-.23-.76-.21l-.9.02Zm0-1.05h.81c.26,0,.51-.06.72-.21.17-.13.26-.34.24-.55,0-.22-.1-.43-.27-.57-.22-.15-.48-.23-.74-.21h-.8l.04,1.52Z"/>
      <path class="cls-1" d="m179.56,6.17l-1.57-.17.61-5.86,1.57.17-.61,5.86Z"/>
      <path class="cls-1" d="m184.44,5.98l-1.95-.48-.65.98-1.63-.39,3.49-5.14.83.2h0l.83.21.81,6.23-1.63-.4-.09-1.2Zm-1.39-1.42l1.27.31-.2-1.95h0l-1.07,1.64Z"/>
      <path class="cls-1" d="m188.27,7.43l2.71,1.16-.4.98-4.18-1.79,2.29-5.39,1.47.64-1.88,4.41Z"/>
      <path class="cls-1" d="m196.92,11.84c.12-.15.15-.35.09-.53-.13-.29-.29-.56-.49-.81-.45-.52-.82-1.11-1.1-1.74-.18-.43-.11-.92.18-1.29.29-.4.79-.61,1.28-.54.64.07,1.25.32,1.75.72.55.37.98.89,1.24,1.5.21.49.13,1.06-.21,1.48h0l-1.25-.92c.16-.18.21-.42.15-.64-.11-.26-.3-.47-.54-.63-.18-.14-.4-.23-.64-.24-.18-.02-.36.07-.46.21-.09.15-.09.34,0,.49.15.31.33.6.54.88.42.49.75,1.06.98,1.67.16.45.08.94-.21,1.32-.29.41-.79.63-1.29.56-.65-.09-1.26-.35-1.77-.76-.57-.39-1.02-.93-1.31-1.55-.25-.55-.16-1.19.23-1.65h0l1.24.93c-.18.21-.25.49-.19.76.12.29.33.54.6.7.2.17.44.28.7.31.19.01.37-.08.48-.23Z"/>
      <path class="cls-1" d="m203.4,16.96c-.49.48-1.17.72-1.85.64-.76-.1-1.45-.47-1.95-1.05-.56-.54-.91-1.26-.98-2.03-.04-.69.23-1.35.73-1.82l.76-.72c.49-.48,1.17-.72,1.85-.64.76.09,1.46.47,1.95,1.06.57.53.92,1.25.98,2.02.04.67-.21,1.33-.69,1.8l-.8.74Zm-.32-1.9c.29-.25.47-.6.51-.98.02-.37-.12-.72-.38-.98-.24-.3-.6-.46-.98-.45-.37.03-.72.19-.98.46l-.77.73c-.28.25-.47.6-.52.98-.02.37.13.72.39.98.24.29.6.45.98.43.37-.02.72-.19.98-.46l.77-.71Z"/>
      <path class="cls-1" d="m203.83,20l1.62,2.47-.87.58-2.5-3.8,4.89-3.23.87,1.34-4.01,2.65Z"/>
      <path class="cls-1" d="m212.45,26.29l-3.46,1.53c-.56.27-1.22.23-1.75-.09-.61-.39-1.08-.97-1.34-1.65-.32-.66-.43-1.4-.31-2.12.12-.61.54-1.13,1.12-1.36l3.46-1.5.64,1.47-3.46,1.53c-.29.1-.52.33-.62.63-.08.33-.04.68.12.98.11.31.32.56.61.72.28.13.6.13.88,0l3.46-1.52.64,1.39Z"/>
      <path class="cls-1" d="m213.11,32.96l-.44-1.77-4.65,1.14-.38-1.55,4.65-1.14-.42-1.69.98-.25,1.24,5.07-.98.2Z"/>
      <path class="cls-1" d="m208.66,36.29l-.2-1.58,5.78-.73.2,1.59-5.78.72Z"/>
      <path class="cls-1" d="m211.17,43.05c-.68,0-1.33-.3-1.76-.83-.49-.59-.73-1.35-.67-2.12-.03-.77.23-1.52.72-2.11.44-.53,1.09-.82,1.78-.8h1.06c.68,0,1.33.3,1.76.83.92,1.27.9,2.98-.05,4.23-.44.52-1.1.82-1.78.79h-1.06Zm1.07-1.58c.37.02.74-.1,1.04-.33.52-.55.52-1.41,0-1.95-.29-.23-.65-.36-1.03-.35h-1.06c-.37-.02-.74.1-1.04.33-.27.25-.42.61-.41.98-.02.37.12.73.39.98.29.24.65.37,1.03.36h1.07Z"/>
      <path class="cls-1" d="m207.54,49.36l.32-1.56,4.1-1.72h0l-3.59-.75.32-1.56,5.71,1.19-.32,1.55-4.09,1.72h0l3.58.75-.32,1.56-5.71-1.18Z"/>
      <path class="cls-1" d="m205.87,56.1l.91-1.85-.84-.86.74-1.5,4.23,4.62-.38.76h0l-.38.76-6.22-.59.75-1.5,1.19.16Zm1.67-1.05l-.58,1.17,1.91.23h0l-1.33-1.41Z"/>
      <path class="cls-1" d="m205.09,64.02l1.06-1.49-3.91-2.77.92-1.31,3.91,2.77,1.04-1.46.85.6-2.99,4.27-.88-.61Z"/>
      <path class="cls-1" d="m199.64,67.44h0l.66,2.82-1.3,1.14-.75-4.4-1.36-1.54,1.19-1.06,1.37,1.64,4.18,1.28-1.29,1.14-2.71-1.04Z"/>
      <path class="cls-1" d="m191.36,72.12c-.37-.58-.46-1.3-.22-1.95.25-.72.76-1.32,1.43-1.69.64-.43,1.42-.61,2.18-.5.69.09,1.31.5,1.65,1.11l.54.9c.37.58.45,1.3.22,1.95-.57,1.45-2.04,2.35-3.6,2.19-.68-.11-1.27-.51-1.61-1.1l-.59-.91Zm1.95.09c.18.33.48.58.83.7.73.18,1.47-.25,1.68-.98.05-.37-.03-.74-.23-1.06l-.55-.92c-.18-.33-.48-.58-.83-.7-.36-.11-.75-.04-1.06.18-.33.17-.56.48-.63.84-.05.37.03.76.23,1.07l.55.86Z"/>
      <path class="cls-1" d="m186.21,77.78l-1.3-3.57c-.24-.58-.16-1.24.2-1.75.42-.59,1.03-1.03,1.72-1.25.67-.27,1.41-.34,2.12-.18.61.16,1.09.62,1.28,1.21l1.28,3.58-1.49.56-1.29-3.49c-.08-.3-.3-.55-.59-.66-.65-.16-1.32.09-1.71.64-.14.28-.14.6,0,.88l1.31,3.57-1.52.47Z"/>
      <path class="cls-1" d="m182.22,74.97l-.38-2.21,1.57-.27.98,5.78-2.35.4c-.65.15-1.33.1-1.95-.15-.48-.2-.83-.64-.9-1.15-.05-.28,0-.57.15-.81.18-.28.43-.51.72-.66-.36,0-.7-.13-.98-.35-.23-.22-.38-.51-.42-.83l-.06-.36c-.04-.17-.09-.34-.17-.51-.07-.16-.19-.28-.34-.36v-.08l1.62-.28c.15.08.27.22.31.39.07.19.12.38.16.58l.06.35c.03.24.16.46.36.59.24.12.53.16.79.09l.83-.15Zm.17,1.04l-.79.14c-.26.03-.5.14-.69.31-.14.15-.2.36-.16.57.03.22.16.42.35.53.23.12.51.15.76.09l.79-.13-.26-1.5Z"/>
      <path class="cls-1" d="m169.56,73.05l1.58.14-.2,2.35,2.53.21.2-2.34,1.59.14-.49,5.86-1.59-.13.21-2.45-2.53-.21-.21,2.45-1.62-.17.53-5.84Z"/>
      <path class="cls-1" d="m164.89,72.98l1.95.55.69-.98,1.61.45-3.73,5.04-.82-.23h0l-.82-.22-.59-6.25,1.61.45.09,1.2Zm1.33,1.46l-1.25-.35.13,1.95h0l1.12-1.6Z"/>
      <path class="cls-1" d="m157.86,68.66l1.42.7.63,4.43h0l1.62-3.29,1.43.7-2.58,5.26-1.43-.7-.63-4.43h0l-1.62,3.29-1.43-.7,2.59-5.26Z"/>
      <path class="cls-1" d="m157.15,68.19l-3.51,4.7-2-1.51c-.59-.44-1.01-1.07-1.17-1.79-.17-.65-.03-1.34.38-1.88l.63-.84c.39-.55,1.02-.88,1.69-.89.73-.02,1.45.22,2.02.68l1.96,1.52Zm-4.15,2.93l2.26-3.01-.73-.56c-.27-.22-.63-.31-.98-.23-.35.06-.67.27-.87.57l-.64.85c-.22.27-.33.62-.3.98.03.34.21.64.49.84l.77.57Z"/>
      <path class="cls-1" d="m148.81,62.89c-.15.12-.22.32-.19.51.07.31.18.6.33.88.34.61.59,1.27.74,1.95.1.46-.06.93-.41,1.24-.37.34-.9.44-1.37.27-1.24-.45-2.18-1.47-2.52-2.75-.11-.52.08-1.07.49-1.41h0l1.05,1.13c-.18.15-.28.37-.25.61.06.27.21.52.41.71.15.19.36.32.6.38.17.05.36,0,.49-.12.13-.12.17-.31.13-.48-.09-.34-.22-.66-.37-.98-.33-.56-.57-1.18-.69-1.83-.08-.47.09-.95.45-1.26.36-.35.89-.47,1.37-.31.62.21,1.17.58,1.59,1.08.47.5.81,1.11.98,1.77.14.59-.07,1.21-.55,1.58h0l-1.06-1.13c.22-.17.34-.44.33-.71-.07-.31-.23-.59-.46-.81-.17-.2-.39-.35-.64-.44-.16-.04-.32,0-.45.1Z"/>
    </g>
  </g>
</svg>