<?xml version="1.0" encoding="utf-8"?>
<!-- Generator: Adobe Illustrator 27.5.0, SVG Export Plug-In . SVG Version: 6.00 Build 0)  -->
<svg version="1.1" id="_圖層_2" xmlns="http://www.w3.org/2000/svg" xmlns:xlink="http://www.w3.org/1999/xlink" x="0px" y="0px"
	 viewBox="0 0 214.7 82.2" style="enable-background:new 0 0 214.7 82.2;" xml:space="preserve">
<style type="text/css">
	.st0{fill:#231815;}
</style>
<g id="_圖層_1-2">
	<g>
		<path class="st0" d="M6.4,50.3v9.5H0V32.2h10.5c2.8-0.2,5.6,0.7,7.8,2.5c1.9,1.7,3,4.1,2.9,6.6c0.1,2.5-1,4.9-2.9,6.6
			c-2.2,1.8-4.9,2.6-7.8,2.5L6.4,50.3L6.4,50.3z M6.4,45.4h4.1c1.2,0.1,2.4-0.3,3.2-1.2c0.7-0.8,1.1-1.8,1.1-2.9
			c0-1.1-0.4-2.2-1.1-3c-0.8-0.8-2-1.3-3.2-1.2H6.4L6.4,45.4L6.4,45.4z"/>
		<path class="st0" d="M31,54.9h11.8v4.9H24.6V32.2H31L31,54.9L31,54.9z"/>
		<path class="st0" d="M60.9,54.5h-8.1l-1.6,5.3h-6.8l9-27.6h6.8l9,27.6h-6.7L60.9,54.5L60.9,54.5z M54.2,49.6h5.2L56.8,41h-0.1
			L54.2,49.6z"/>
		<path class="st0" d="M85.3,52.5c0.1-0.9-0.3-1.7-1-2.3c-1.1-0.7-2.2-1.3-3.5-1.7c-2.7-0.8-5.2-2-7.5-3.5c-1.7-1.3-2.6-3.3-2.5-5.4
			c0-2.2,1.1-4.3,2.9-5.6c2.1-1.5,4.7-2.2,7.3-2.1c2.7-0.1,5.3,0.6,7.6,2.2c1.9,1.5,2.9,3.8,2.8,6.2v0.1h-6.3
			c0.1-1.1-0.3-2.1-1.1-2.8c-0.9-0.7-2.1-1-3.2-0.9c-1-0.1-1.9,0.2-2.7,0.8c-0.6,0.5-1,1.3-1,2.1c0,0.8,0.3,1.5,1,2
			c1.2,0.7,2.5,1.4,3.8,1.8c2.6,0.7,5.1,1.8,7.2,3.5c1.6,1.4,2.6,3.5,2.4,5.6c0.1,2.2-1,4.4-2.8,5.7c-2.2,1.5-4.8,2.2-7.5,2
			c-2.8,0.1-5.5-0.7-7.9-2.2c-2.2-1.5-3.2-3.8-3.1-7v-0.1h6.2c-0.1,1.3,0.3,2.5,1.2,3.4c1.1,0.7,2.3,1.1,3.6,1
			c1.1,0.1,2.1-0.2,3-0.8C84.9,54.1,85.3,53.3,85.3,52.5L85.3,52.5z"/>
		<path class="st0" d="M114.2,37.2H107v22.7h-6.3V37.2h-7.2v-4.9h20.7V37.2z"/>
		<path class="st0" d="M123.2,54.9h11.7v4.9h-18.1V32.2h6.4L123.2,54.9L123.2,54.9z"/>
		<path class="st0" d="M145.1,59.8h-6.4V32.2h6.4V59.8z"/>
		<path class="st0" d="M164,52.5c0.1-0.9-0.3-1.7-1-2.3c-1.1-0.7-2.2-1.3-3.5-1.7c-2.7-0.8-5.3-2-7.6-3.5c-1.7-1.3-2.6-3.3-2.5-5.4
			c0-2.2,1.1-4.3,2.9-5.6c4.6-2.9,10.4-2.9,14.9,0.1c1.9,1.5,2.9,3.8,2.7,6.2v0.1h-6.2c0.1-1.1-0.3-2.1-1.1-2.8
			c-0.9-0.7-2.1-1-3.2-0.9c-1-0.1-1.9,0.2-2.7,0.8c-0.6,0.5-1,1.3-1,2.1c0,0.8,0.4,1.5,1,2c1.2,0.7,2.5,1.4,3.8,1.8
			c2.6,0.7,5.1,1.8,7.2,3.5c1.6,1.4,2.5,3.5,2.4,5.6c0.1,2.2-1,4.4-2.9,5.7c-2.2,1.5-4.8,2.2-7.5,2c-2.8,0.1-5.6-0.7-7.9-2.2
			c-2.2-1.5-3.2-3.8-3.1-7v-0.1h6.2c-0.1,1.3,0.3,2.5,1.2,3.4c1.1,0.7,2.3,1.1,3.6,1c1,0.1,2.1-0.2,2.9-0.8
			C163.6,54.1,164,53.3,164,52.5z"/>
		<path class="st0" d="M192.9,37.2h-7.3v22.7h-6.4V37.2h-7.1v-4.9h20.7L192.9,37.2L192.9,37.2z"/>
		<path class="st0" d="M146.6,24.9l-0.8,1.4l-5-2.9l0.8-1.4L146.6,24.9z"/>
		<path class="st0" d="M150.6,19.4l-1,1.3l-4.4-0.3l0,0l2.9,2.3l-1,1.3l-4.6-3.6l1-1.3l4.4,0.3l0,0l-2.9-2.2l1-1.3L150.6,19.4z"/>
		<path class="st0" d="M151.2,18.8l-3.9-4.4l1.9-1.7c0.5-0.5,1.2-0.8,1.9-0.8c0.7,0,1.3,0.2,1.7,0.8l0.7,0.8
			c0.4,0.5,0.6,1.2,0.5,1.8c-0.1,0.7-0.5,1.4-1.1,1.9L151.2,18.8z M149.2,14.2l2.5,2.8l0.7-0.6c0.3-0.2,0.4-0.5,0.4-0.9
			c0-0.4-0.1-0.7-0.4-1l-0.7-0.8c-0.2-0.3-0.6-0.4-0.9-0.5c-0.3,0-0.7,0.1-0.9,0.3L149.2,14.2L149.2,14.2z"/>
		<path class="st0" d="M157.7,6.9l1.9,3.3c0.3,0.5,0.4,1.2,0.1,1.8c-0.3,0.6-0.8,1.2-1.4,1.5c-0.6,0.4-1.3,0.6-2.1,0.6
			c-0.6-0.1-1.2-0.4-1.5-1l-1.9-3.3l1.4-0.8l1.9,3.3c0.1,0.3,0.4,0.5,0.7,0.5c0.3,0,0.7,0,0.9-0.2c0.3-0.1,0.5-0.4,0.6-0.7
			c0.1-0.3,0-0.6-0.1-0.9l-1.9-3.3L157.7,6.9L157.7,6.9z"/>
		<path class="st0" d="M164.1,9c-0.1-0.2-0.2-0.3-0.4-0.4c-0.3-0.1-0.6-0.1-1,0c-0.7,0.1-1.4,0.1-2,0c-0.5-0.1-0.8-0.4-1-0.9
			c-0.2-0.5-0.1-1,0.3-1.4c0.4-0.5,0.9-0.9,1.6-1.1c0.6-0.3,1.3-0.3,1.9-0.2c0.5,0.1,0.9,0.5,1.1,1l0,0l-1.5,0.5
			c-0.1-0.2-0.2-0.4-0.4-0.5c-0.3,0-0.6,0-0.8,0.1c-0.2,0.1-0.4,0.2-0.6,0.4c-0.1,0.1-0.1,0.3-0.1,0.5c0.1,0.2,0.2,0.3,0.4,0.3
			c0.3,0,0.7,0,1,0c0.6-0.1,1.3-0.1,1.9,0.1c0.5,0.1,0.8,0.5,1,0.9c0.2,0.5,0.1,1-0.2,1.4c-0.4,0.5-1,0.9-1.6,1.1
			c-0.6,0.3-1.3,0.3-2,0.2c-0.6-0.1-1.1-0.5-1.2-1.1l0,0l1.5-0.5c0.1,0.3,0.3,0.5,0.5,0.6c0.3,0.1,0.7,0,1-0.1
			c0.2-0.1,0.5-0.2,0.6-0.4C164.2,9.4,164.2,9.2,164.1,9L164.1,9z"/>
		<path class="st0" d="M170.6,4.1l-1.8,0.3l0.9,4.7l-1.6,0.3l-0.9-4.7l-1.8,0.3l-0.2-1l5.1-1L170.6,4.1L170.6,4.1z"/>
		<path class="st0" d="M173.5,6.5l0.1,2.3h-1.6l-0.1-5.9l2.4-0.1c0.7-0.1,1.4,0.1,1.9,0.4c0.4,0.3,0.7,0.8,0.7,1.3
			c0,0.3-0.1,0.6-0.2,0.8c-0.2,0.2-0.5,0.4-0.8,0.6c0.4,0.1,0.7,0.2,0.9,0.5c0.2,0.2,0.3,0.6,0.3,0.9v0.4c0,0.2,0,0.3,0.1,0.5
			c0,0.2,0.1,0.3,0.3,0.4v0.1h-1.6c-0.1-0.1-0.2-0.3-0.2-0.4c0-0.2-0.1-0.4-0.1-0.6V7.4c0-0.2-0.1-0.5-0.3-0.6
			c-0.2-0.2-0.5-0.2-0.8-0.2C174.4,6.5,173.5,6.5,173.5,6.5z M173.5,5.5h0.8c0.3,0,0.5-0.1,0.7-0.2c0.2-0.1,0.3-0.3,0.2-0.6
			c0-0.2-0.1-0.4-0.3-0.6c-0.2-0.2-0.5-0.2-0.7-0.2h-0.8L173.5,5.5L173.5,5.5z"/>
		<path class="st0" d="M179.6,9L178,8.8l0.6-5.9l1.6,0.2L179.6,9z"/>
		<path class="st0" d="M184.4,8.8l-1.9-0.5l-0.6,1l-1.6-0.4l3.5-5.1l0.8,0.2l0,0l0.8,0.2l0.8,6.2l-1.6-0.4L184.4,8.8L184.4,8.8z
			 M183.1,7.4l1.3,0.3l-0.2-1.9l0,0L183.1,7.4z"/>
		<path class="st0" d="M188.3,10.3l2.7,1.2l-0.4,1l-4.2-1.8l2.3-5.4l1.5,0.6L188.3,10.3L188.3,10.3z"/>
		<path class="st0" d="M196.9,14.7c0.1-0.1,0.1-0.4,0.1-0.5c-0.1-0.3-0.3-0.6-0.5-0.8c-0.4-0.5-0.8-1.1-1.1-1.7
			c-0.2-0.4-0.1-0.9,0.2-1.3c0.3-0.4,0.8-0.6,1.3-0.5c0.6,0.1,1.2,0.3,1.8,0.7c0.6,0.4,1,0.9,1.2,1.5c0.2,0.5,0.1,1.1-0.2,1.5l0,0
			l-1.2-0.9c0.2-0.2,0.2-0.4,0.1-0.6c-0.1-0.3-0.3-0.5-0.5-0.6c-0.2-0.1-0.4-0.2-0.6-0.2c-0.2,0-0.4,0.1-0.5,0.2
			c-0.1,0.1-0.1,0.3,0,0.5c0.1,0.3,0.3,0.6,0.5,0.9c0.4,0.5,0.8,1.1,1,1.7c0.2,0.4,0.1,0.9-0.2,1.3c-0.3,0.4-0.8,0.6-1.3,0.6
			c-0.6-0.1-1.3-0.4-1.8-0.8c-0.6-0.4-1-0.9-1.3-1.6c-0.2-0.6-0.2-1.2,0.2-1.6l0,0l1.2,0.9c-0.2,0.2-0.2,0.5-0.2,0.8
			c0.1,0.3,0.3,0.5,0.6,0.7c0.2,0.2,0.4,0.3,0.7,0.3C196.6,14.9,196.8,14.8,196.9,14.7L196.9,14.7z"/>
		<path class="st0" d="M203.4,19.8c-0.5,0.5-1.2,0.7-1.9,0.6c-0.8-0.1-1.4-0.5-1.9-1c-0.6-0.5-0.9-1.3-1-2c0-0.7,0.2-1.4,0.7-1.8
			l0.8-0.7c0.5-0.5,1.2-0.7,1.9-0.6c0.8,0.1,1.5,0.5,1.9,1.1c0.6,0.5,0.9,1.3,1,2c0,0.7-0.2,1.3-0.7,1.8L203.4,19.8L203.4,19.8z
			 M203.1,17.9c0.3-0.2,0.5-0.6,0.5-1c0-0.4-0.1-0.7-0.4-1c-0.2-0.3-0.6-0.5-1-0.4c-0.4,0-0.7,0.2-1,0.5l-0.8,0.7
			c-0.3,0.2-0.5,0.6-0.5,1c0,0.4,0.1,0.7,0.4,1c0.2,0.3,0.6,0.5,1,0.4c0.4,0,0.7-0.2,1-0.5L203.1,17.9L203.1,17.9z"/>
		<path class="st0" d="M203.8,22.8l1.6,2.5l-0.9,0.6l-2.5-3.8l4.9-3.2l0.9,1.3L203.8,22.8L203.8,22.8z"/>
		<path class="st0" d="M212.4,29.1l-3.5,1.5c-0.6,0.3-1.2,0.2-1.8-0.1c-0.6-0.4-1.1-1-1.3-1.6c-0.3-0.7-0.4-1.4-0.3-2.1
			c0.1-0.6,0.5-1.1,1.1-1.4l3.5-1.5l0.6,1.5l-3.5,1.5c-0.3,0.1-0.5,0.3-0.6,0.6c-0.1,0.3,0,0.7,0.1,1c0.1,0.3,0.3,0.6,0.6,0.7
			c0.3,0.1,0.6,0.1,0.9,0l3.5-1.5L212.4,29.1L212.4,29.1z"/>
		<path class="st0" d="M213.1,35.8l-0.4-1.8l-4.6,1.1l-0.4-1.5l4.6-1.1l-0.4-1.7l1-0.2l1.2,5.1L213.1,35.8L213.1,35.8z"/>
		<path class="st0" d="M208.7,39.1l-0.2-1.6l5.8-0.7l0.2,1.6L208.7,39.1z"/>
		<path class="st0" d="M211.2,45.9c-0.7,0-1.3-0.3-1.8-0.8c-0.5-0.6-0.7-1.3-0.7-2.1c0-0.8,0.2-1.5,0.7-2.1c0.4-0.5,1.1-0.8,1.8-0.8
			h1.1c0.7,0,1.3,0.3,1.8,0.8c0.9,1.3,0.9,3-0.1,4.2c-0.4,0.5-1.1,0.8-1.8,0.8L211.2,45.9L211.2,45.9z M212.2,44.3
			c0.4,0,0.7-0.1,1-0.3c0.5-0.5,0.5-1.4,0-2c-0.3-0.2-0.6-0.4-1-0.3h-1.1c-0.4,0-0.7,0.1-1,0.3c-0.3,0.2-0.4,0.6-0.4,1
			c0,0.4,0.1,0.7,0.4,1c0.3,0.2,0.6,0.4,1,0.4L212.2,44.3L212.2,44.3z"/>
		<path class="st0" d="M207.5,52.2l0.3-1.6l4.1-1.7l0,0l-3.6-0.8l0.3-1.6l5.7,1.2l-0.3,1.5l-4.1,1.7l0,0l3.6,0.8l-0.3,1.6
			L207.5,52.2L207.5,52.2z"/>
		<path class="st0" d="M205.9,58.9l0.9-1.8l-0.8-0.9l0.7-1.5l4.2,4.6l-0.4,0.8l0,0l-0.4,0.8l-6.2-0.6l0.8-1.5
			C204.7,58.8,205.9,58.9,205.9,58.9z M207.5,57.9l-0.6,1.2l1.9,0.2l0,0L207.5,57.9L207.5,57.9z"/>
		<path class="st0" d="M205.1,66.9l1.1-1.5l-3.9-2.8l0.9-1.3l3.9,2.8l1-1.5l0.9,0.6l-3,4.3L205.1,66.9L205.1,66.9z"/>
		<path class="st0" d="M199.6,70.3L199.6,70.3l0.7,2.8l-1.3,1.1l-0.8-4.4l-1.4-1.5l1.2-1.1l1.4,1.6l4.2,1.3l-1.3,1.1L199.6,70.3
			L199.6,70.3z"/>
		<path class="st0" d="M191.4,75c-0.4-0.6-0.5-1.3-0.2-1.9c0.2-0.7,0.8-1.3,1.4-1.7c0.6-0.4,1.4-0.6,2.2-0.5
			c0.7,0.1,1.3,0.5,1.6,1.1l0.5,0.9c0.4,0.6,0.4,1.3,0.2,1.9c-0.6,1.4-2,2.3-3.6,2.2c-0.7-0.1-1.3-0.5-1.6-1.1L191.4,75L191.4,75z
			 M193.3,75.1c0.2,0.3,0.5,0.6,0.8,0.7c0.7,0.2,1.5-0.2,1.7-1c0.1-0.4,0-0.7-0.2-1.1l-0.6-0.9c-0.2-0.3-0.5-0.6-0.8-0.7
			c-0.4-0.1-0.8,0-1.1,0.2c-0.3,0.2-0.6,0.5-0.6,0.8c-0.1,0.4,0,0.8,0.2,1.1L193.3,75.1L193.3,75.1z"/>
		<path class="st0" d="M186.2,80.6l-1.3-3.6c-0.2-0.6-0.2-1.2,0.2-1.8c0.4-0.6,1-1,1.7-1.2c0.7-0.3,1.4-0.3,2.1-0.2
			c0.6,0.2,1.1,0.6,1.3,1.2l1.3,3.6l-1.5,0.6l-1.3-3.5c-0.1-0.3-0.3-0.6-0.6-0.7c-0.6-0.2-1.3,0.1-1.7,0.6c-0.1,0.3-0.1,0.6,0,0.9
			l1.3,3.6L186.2,80.6L186.2,80.6z"/>
		<path class="st0" d="M182.2,77.8l-0.4-2.2l1.6-0.3l1,5.8l-2.4,0.4c-0.6,0.2-1.3,0.1-1.9-0.2c-0.5-0.2-0.8-0.6-0.9-1.2
			c-0.1-0.3,0-0.6,0.1-0.8c0.2-0.3,0.4-0.5,0.7-0.7c-0.4,0-0.7-0.1-1-0.3c-0.2-0.2-0.4-0.5-0.4-0.8l-0.1-0.4c0-0.2-0.1-0.3-0.2-0.5
			c-0.1-0.2-0.2-0.3-0.3-0.4v-0.1l1.6-0.3c0.1,0.1,0.3,0.2,0.3,0.4c0.1,0.2,0.1,0.4,0.2,0.6l0.1,0.3c0,0.2,0.2,0.5,0.4,0.6
			c0.2,0.1,0.5,0.2,0.8,0.1L182.2,77.8L182.2,77.8z M182.4,78.9l-0.8,0.1c-0.3,0-0.5,0.1-0.7,0.3c-0.1,0.2-0.2,0.4-0.2,0.6
			c0,0.2,0.2,0.4,0.4,0.5c0.2,0.1,0.5,0.2,0.8,0.1l0.8-0.1L182.4,78.9L182.4,78.9z"/>
		<path class="st0" d="M169.6,75.9l1.6,0.1l-0.2,2.3l2.5,0.2l0.2-2.3l1.6,0.1l-0.5,5.9l-1.6-0.1l0.2-2.4l-2.5-0.2l-0.2,2.4l-1.6-0.2
			L169.6,75.9L169.6,75.9z"/>
		<path class="st0" d="M164.9,75.8l1.9,0.6l0.7-1l1.6,0.4l-3.7,5l-0.8-0.2l0,0l-0.8-0.2l-0.6-6.2l1.6,0.4L164.9,75.8L164.9,75.8z
			 M166.2,77.3l-1.2-0.3l0.1,1.9l0,0L166.2,77.3z"/>
		<path class="st0" d="M157.9,71.5l1.4,0.7l0.6,4.4l0,0l1.6-3.3L163,74l-2.6,5.3l-1.4-0.7l-0.6-4.4l0,0l-1.6,3.3l-1.4-0.7
			L157.9,71.5z"/>
		<path class="st0" d="M157.1,71l-3.5,4.7l-2-1.5c-0.6-0.4-1-1.1-1.2-1.8c-0.2-0.7,0-1.3,0.4-1.9l0.6-0.8c0.4-0.6,1-0.9,1.7-0.9
			c0.7,0,1.4,0.2,2,0.7L157.1,71L157.1,71z M153,74l2.3-3l-0.7-0.6c-0.3-0.2-0.6-0.3-1-0.2c-0.4,0.1-0.7,0.3-0.9,0.6l-0.6,0.8
			c-0.2,0.3-0.3,0.6-0.3,1c0,0.3,0.2,0.6,0.5,0.8L153,74L153,74z"/>
		<path class="st0" d="M148.8,65.7c-0.1,0.1-0.2,0.3-0.2,0.5c0.1,0.3,0.2,0.6,0.3,0.9c0.3,0.6,0.6,1.3,0.7,1.9
			c0.1,0.5-0.1,0.9-0.4,1.2c-0.4,0.3-0.9,0.4-1.4,0.3c-1.2-0.4-2.2-1.5-2.5-2.8c-0.1-0.5,0.1-1.1,0.5-1.4l0,0l1.1,1.1
			c-0.2,0.2-0.3,0.4-0.2,0.6c0.1,0.3,0.2,0.5,0.4,0.7c0.1,0.2,0.4,0.3,0.6,0.4c0.2,0.1,0.4,0,0.5-0.1s0.2-0.3,0.1-0.5
			c-0.1-0.3-0.2-0.7-0.4-1c-0.3-0.6-0.6-1.2-0.7-1.8c-0.1-0.5,0.1-0.9,0.4-1.3c0.4-0.3,0.9-0.5,1.4-0.3c0.6,0.2,1.2,0.6,1.6,1.1
			c0.5,0.5,0.8,1.1,1,1.8c0.1,0.6-0.1,1.2-0.6,1.6l0,0l-1.1-1.1c0.2-0.2,0.3-0.4,0.3-0.7c-0.1-0.3-0.2-0.6-0.5-0.8
			c-0.2-0.2-0.4-0.3-0.6-0.4C149.1,65.6,148.9,65.6,148.8,65.7L148.8,65.7z"/>
	</g>
</g>
<g>
	<g>
		<path d="M209.6,8.4c-2.3,0-4.2-1.9-4.2-4.2s1.9-4.2,4.2-4.2s4.2,1.9,4.2,4.2S211.9,8.4,209.6,8.4z M209.6,0.8
			c-1.9,0-3.4,1.5-3.4,3.4s1.5,3.4,3.4,3.4s3.4-1.5,3.4-3.4S211.5,0.8,209.6,0.8z"/>
	</g>
	<g>
		<g>
			<path d="M211.6,6.6h-0.8l-1.1-2.1h-1.3v2.1h-0.7V1.8h2.1c0.5,0,0.9,0.1,1.2,0.4c0.3,0.2,0.5,0.6,0.5,1c0,0.6-0.3,1.1-1,1.3
				L211.6,6.6z M210.8,3.1c0-0.5-0.3-0.7-1-0.7h-1.4v1.5h1.4c0.3,0,0.6-0.1,0.8-0.2C210.7,3.5,210.8,3.3,210.8,3.1z"/>
			<path d="M211.8,6.7h-1l-1.1-2.1h-1.2v2.1h-0.9V1.7h2.2c0.5,0,0.9,0.1,1.3,0.4c0.3,0.3,0.5,0.6,0.5,1.1c0,0.6-0.3,1.1-1,1.3
				L211.8,6.7z M210.9,6.5h0.5l-1.1-2.2l0.1,0c0.6-0.2,0.9-0.6,0.9-1.2c0-0.4-0.1-0.7-0.4-0.9c-0.3-0.2-0.7-0.3-1.1-0.3h-2v4.6h0.5
				V4.4h1.5L210.9,6.5z M209.7,4h-1.5V2.3h1.5c0.9,0,1.1,0.5,1.1,0.8c0,0.2-0.1,0.4-0.3,0.6C210.4,3.9,210.1,4,209.7,4z M208.5,3.8
				h1.3c0.3,0,0.6-0.1,0.7-0.2c0.1-0.1,0.2-0.3,0.2-0.4c0-0.3-0.1-0.6-0.9-0.6h-1.3V3.8z"/>
		</g>
	</g>
</g>
</svg>
